<svg width="274" height="57" viewBox="0 0 274 57" fill="none" xmlns="http://www.w3.org/2000/svg">
<path d="M17.5427 39.352C17.8414 40.632 18.0334 42.424 18.1187 44.728C18.1187 45.2826 18.3747 45.56 18.8867 45.56C19.3987 45.56 19.6547 45.2826 19.6547 44.728C19.6547 42.7653 19.804 40.9733 20.1027 39.352L26.3107 5.94397H36.5507L42.7587 39.352C43.0574 40.9733 43.2067 42.7653 43.2067 44.728C43.2067 45.2826 43.4627 45.56 43.9747 45.56C44.4867 45.56 44.7427 45.2826 44.7427 44.728C44.7427 42.8506 44.9347 41.0586 45.3187 39.352L52.9347 5.94397H62.1507L50.8867 51H37.5747L32.5827 21.88C32.3267 20.5146 32.1987 18.7013 32.1987 16.44C32.1987 15.8426 31.9427 15.544 31.4307 15.544C30.9187 15.544 30.6627 15.8426 30.6627 16.44C30.6627 18.7013 30.5347 20.5146 30.2787 21.88L25.2867 51H11.9747L0.710693 5.94397H9.92669L17.5427 39.352Z" fill="white"/>
<path d="M54.9272 41.72C54.9272 38.2213 56.0365 35.64 58.2552 33.976C60.5165 32.2693 63.5032 31.3093 67.2152 31.096L70.4792 30.968C73.3805 30.8826 75.4499 30.6906 76.6872 30.392C77.9245 30.0933 78.5219 29.368 78.4792 28.216C78.4365 26.7653 77.9459 25.592 77.0072 24.696C76.0685 23.8 74.2979 23.352 71.6952 23.352C69.0499 23.352 67.1725 23.8213 66.0632 24.76C64.9539 25.656 64.2712 26.8933 64.0152 28.472H55.9512C56.5059 24.4613 58.2765 21.496 61.2632 19.576C64.2499 17.656 67.8125 16.696 71.9512 16.696C76.4739 16.696 80.0579 17.8053 82.7032 20.024C85.3485 22.2426 86.6712 26.3386 86.6712 32.312V51H78.4792V48.632C78.4792 47.352 78.7992 46.1146 79.4392 44.92C79.6099 44.4933 79.6952 44.1733 79.6952 43.96C79.6952 43.704 79.5885 43.5333 79.3752 43.448L79.1192 43.384C78.8632 43.384 78.6712 43.512 78.5432 43.768C78.4152 43.9813 78.3512 44.1093 78.3512 44.152C76.3459 49.0586 72.4632 51.512 66.7032 51.512C64.6125 51.512 62.6499 51.0853 60.8152 50.232C59.0232 49.3786 57.5939 48.2053 56.5272 46.712C55.4605 45.2186 54.9272 43.5546 54.9272 41.72ZM78.4792 33.592C77.6259 34.5306 76.4952 35.192 75.0872 35.576C73.7219 35.9173 71.5672 36.2373 68.6232 36.536C66.7885 36.7493 65.4019 37.24 64.4632 38.008C63.5672 38.7333 63.1192 39.8213 63.1192 41.272C63.1192 42.5093 63.5885 43.512 64.5272 44.28C65.5085 45.048 66.7672 45.432 68.3032 45.432C68.8579 45.432 69.2845 45.4106 69.5832 45.368C72.1005 45.0266 74.1912 43.9386 75.8552 42.104C77.5619 40.2693 78.4365 37.432 78.4792 33.592Z" fill="white"/>
<path d="M99.8262 41.912C100.125 42.8933 100.274 44.1306 100.274 45.624C100.274 46.264 100.53 46.584 101.042 46.584C101.554 46.584 101.81 46.264 101.81 45.624C101.81 44.1306 101.96 42.8933 102.258 41.912L109.746 17.208H118.45L106.93 51H95.1542L83.6342 17.208H92.3382L99.8262 41.912Z" fill="white"/>
<path d="M146.143 33.656C146.143 34.3386 146.079 35.1706 145.951 36.152H121.375C121.673 38.712 122.612 40.7173 124.191 42.168C125.769 43.6186 127.839 44.344 130.399 44.344C133.855 44.344 136.137 42.6373 137.247 39.224H145.567C144.799 42.936 143.135 45.9226 140.575 48.184C138.057 50.4026 134.644 51.512 130.335 51.512C126.793 51.512 123.743 50.7653 121.183 49.272C118.623 47.7786 116.681 45.7306 115.359 43.128C114.036 40.4826 113.375 37.4746 113.375 34.104C113.375 30.6053 114.057 27.5546 115.423 24.952C116.788 22.3066 118.729 20.28 121.247 18.872C123.807 17.4213 126.793 16.696 130.207 16.696C132.98 16.696 135.561 17.2933 137.951 18.488C140.383 19.64 142.345 21.496 143.839 24.056C145.375 26.5733 146.143 29.7733 146.143 33.656ZM137.951 30.52C137.78 28.3866 137.055 26.6586 135.775 25.336C134.495 24.0133 132.724 23.352 130.463 23.352C125.599 23.352 122.676 25.7413 121.695 30.52H137.951Z" fill="white"/>
<path d="M143.043 56.12L164.547 0.823975H170.179L148.675 56.12H143.043Z" fill="white"/>
<path d="M167.135 28.472C167.135 24.1626 168.009 20.2586 169.759 16.76C171.508 13.2613 174.089 10.5093 177.503 8.50397C180.916 6.45598 185.012 5.43198 189.791 5.43198C193.801 5.43198 197.257 6.17864 200.159 7.67197C203.06 9.16531 205.321 11.1066 206.943 13.496C208.564 15.8853 209.631 18.488 210.143 21.304H201.503C200.735 18.8293 199.412 16.8453 197.535 15.352C195.657 13.8586 193.119 13.112 189.919 13.112C186.932 13.112 184.372 13.7946 182.239 15.16C180.148 16.4826 178.548 18.3173 177.439 20.664C176.372 22.968 175.839 25.5706 175.839 28.472C175.839 31.3306 176.351 33.9333 177.375 36.28C178.441 38.584 179.999 40.4186 182.047 41.784C184.137 43.1493 186.655 43.832 189.599 43.832C192.671 43.832 195.167 42.9786 197.087 41.272C199.049 39.5653 200.393 37.3466 201.119 34.616H190.175V27.448H210.143V51H201.183V48.056C201.183 46.6053 201.567 44.9413 202.335 43.064C202.377 42.9786 202.399 42.8293 202.399 42.616C202.399 42.2746 202.271 42.0826 202.015 42.04C201.929 41.9973 201.823 41.976 201.695 41.976C201.439 41.976 201.225 42.1466 201.055 42.488C200.159 44.7066 198.58 46.776 196.319 48.696C194.1 50.5733 191.284 51.512 187.871 51.512C183.647 51.512 179.956 50.488 176.799 48.44C173.684 46.392 171.295 43.6186 169.631 40.12C167.967 36.6213 167.135 32.7386 167.135 28.472Z" fill="white"/>
<path d="M219.304 24.44C219.474 24.44 219.624 24.376 219.752 24.248C219.88 24.0773 219.965 23.928 220.008 23.8C220.776 22.0506 221.565 20.6853 222.376 19.704C223.186 18.7226 224.36 17.976 225.896 17.464C227.432 16.952 229.522 16.696 232.168 16.696V25.016C231.656 24.9733 230.952 24.952 230.056 24.952C226.258 24.952 223.613 25.848 222.12 27.64C220.626 29.3893 219.88 32.2906 219.88 36.344V51H211.688V17.208H219.88V19.064C219.88 20.3866 219.56 21.688 218.92 22.968C218.749 23.3093 218.664 23.5866 218.664 23.8C218.664 24.1413 218.856 24.3546 219.24 24.44H219.304Z" fill="white"/>
<path d="M231.693 4.91998H239.885V13.112H231.693V4.91998ZM231.693 17.208H239.885V51H231.693V17.208Z" fill="white"/>
<path d="M273.192 51H265V49.528C265 48.4186 265.298 47.2666 265.896 46.072C266.109 45.7306 266.216 45.4106 266.216 45.112C266.216 44.856 266.066 44.664 265.768 44.536L265.576 44.472C265.32 44.472 265.128 44.5786 265 44.792C264.914 45.0053 264.85 45.1333 264.808 45.176C263.485 47.1386 261.97 48.696 260.264 49.848C258.557 50.9573 256.509 51.512 254.12 51.512C251.261 51.512 248.701 50.744 246.44 49.208C244.221 47.672 242.493 45.5813 241.256 42.936C240.018 40.2906 239.4 37.3466 239.4 34.104C239.4 30.8613 240.018 27.9173 241.256 25.272C242.493 22.6266 244.221 20.536 246.44 19C248.701 17.464 251.261 16.696 254.12 16.696C256.637 16.696 258.792 17.272 260.584 18.424C262.418 19.5333 263.826 21.048 264.808 22.968C265.149 23.6933 265.533 23.9493 265.96 23.736C266.173 23.608 266.28 23.416 266.28 23.16C266.28 22.904 266.152 22.52 265.896 22.008C265.298 20.8133 265 19.64 265 18.488V4.91998H273.192V51ZM256.04 44.088C257.789 44.088 259.346 43.64 260.712 42.744C262.077 41.848 263.122 40.632 263.848 39.096C264.616 37.56 265 35.896 265 34.104C265 32.312 264.616 30.648 263.848 29.112C263.122 27.576 262.077 26.36 260.712 25.464C259.346 24.568 257.789 24.12 256.04 24.12C253.309 24.12 251.218 25.08 249.768 27C248.317 28.8773 247.592 31.2453 247.592 34.104C247.592 36.9626 248.317 39.352 249.768 41.272C251.218 43.1493 253.309 44.088 256.04 44.088Z" fill="white"/>
</svg>
